<?xml version="1.0" encoding="utf-8"?>
<!-- Generator: Adobe Illustrator 23.1.1, SVG Export Plug-In . SVG Version: 6.00 Build 0)  -->
<svg version="1.1" id="Capa_1" xmlns="http://www.w3.org/2000/svg" xmlns:xlink="http://www.w3.org/1999/xlink" x="0px" y="0px"
	 viewBox="0 0 85 62.4" style="enable-background:new 0 0 85 62.4;" xml:space="preserve">
<style type="text/css">
	.st0{fill:#FFFFFF;}
</style>
<g>
	<path class="st0" d="M13.9,31.3c0-1.1,0.3-2.2,0.9-3.1l9.5-16c1.1-1.9,3.3-3.1,5.6-3.1h19c2.3,0,4.4,1.2,5.6,3.1l9.5,16
		c1.1,1.9,1.1,4.3,0,6.3l-9.5,16c-1.1,1.9-3.3,3.1-5.6,3.1h-19c-2.3,0-4.4-1.2-5.6-3.1l-9.5-16C14.2,33.5,13.9,32.4,13.9,31.3
		 M61.3,31.4c0-0.5-0.1-1-0.4-1.5l-9.5-16c-0.5-0.9-1.5-1.5-2.6-1.5h-19c-1.1,0-2.1,0.6-2.6,1.5l-9.5,16c-0.5,0.9-0.5,2,0,2.9
		l9.5,16c0.5,0.9,1.5,1.5,2.6,1.5h19c1.1,0,2.1-0.6,2.6-1.5l9.5-16C61.1,32.4,61.3,31.9,61.3,31.4"/>
	<path class="st0" d="M6.7,31.3c0-1.1,0.3-2.2,0.9-3.1l9.5-16c1.1-1.9,3.3-3.1,5.6-3.1h19c2.3,0,4.4,1.2,5.6,3.1l9.5,16
		c1.1,1.9,1.1,4.3,0,6.3l-9.5,16c-1.1,1.9-3.3,3.1-5.6,3.1h-19c-2.3,0-4.4-1.2-5.6-3.1l-9.5-16C6.9,33.5,6.7,32.4,6.7,31.3 M54,31.3
		c0-0.5-0.1-1-0.4-1.5l-9.5-16c-0.5-0.9-1.5-1.5-2.6-1.5h-19c-1.1,0-2.1,0.6-2.6,1.5l-9.5,16c-0.5,0.9-0.5,2,0,2.9l9.5,16
		c0.5,0.9,1.5,1.5,2.6,1.5h19c1.1,0,2.1-0.6,2.6-1.5l9.5-16C53.9,32.4,54,31.9,54,31.3"/>
	<path class="st0" d="M10.2,37.6c0-1.1,0.3-2.2,0.9-3.1l9.5-16c1.1-1.9,3.3-3.1,5.6-3.1h19c2.3,0,4.4,1.2,5.6,3.1l9.5,16
		c1.1,1.9,1.1,4.3,0,6.3l-9.5,16c-1.1,1.9-3.3,3.1-5.6,3.1h-19c-2.3,0-4.4-1.2-5.6-3.1l-9.5-16C10.5,39.8,10.2,38.7,10.2,37.6
		 M57.6,37.7c0-0.5-0.1-1-0.4-1.5l-9.5-16c-0.5-0.9-1.5-1.5-2.6-1.5h-19c-1.1,0-2.1,0.6-2.6,1.5l-9.5,16c-0.5,0.9-0.5,2,0,2.9
		l9.5,16c0.5,0.9,1.5,1.5,2.6,1.5h19c1.1,0,2.1-0.6,2.6-1.5l9.5-16C57.4,38.7,57.6,38.2,57.6,37.7"/>
	<path class="st0" d="M10.2,25.1c0-1.1,0.3-2.2,0.9-3.1l9.5-16c1.1-1.9,3.3-3.1,5.6-3.1h19c2.3,0,4.4,1.2,5.6,3.1l9.5,16
		c1.1,1.9,1.1,4.3,0,6.3l-9.5,16c-1.1,1.9-3.3,3.1-5.6,3.1h-19c-2.3,0-4.4-1.2-5.6-3.1l-9.5-16C10.5,27.3,10.2,26.2,10.2,25.1
		 M57.6,25.2c0-0.5-0.1-1-0.4-1.5l-9.5-16c-0.5-0.9-1.5-1.5-2.6-1.5h-19c-1.1,0-2.1,0.6-2.6,1.5l-9.5,16c-0.5,0.9-0.5,2,0,2.9
		l9.5,16c0.5,0.9,1.5,1.5,2.6,1.5h19c1.1,0,2.1-0.6,2.6-1.5l9.5-16C57.5,26.2,57.6,25.7,57.6,25.2"/>
	<path class="st0" d="M81.2,2.4H57.4c-0.8-0.1-1.5,0.7-1.1,1.5L68,24.2c0.3,0.8,1.4,0.9,1.9,0.1L81.9,4C82.3,3.4,81.9,2.6,81.2,2.4"
		/>
</g>
</svg>
