<?xml version="1.0" encoding="utf-8"?>
<!-- Generator: Adobe Illustrator 23.1.1, SVG Export Plug-In . SVG Version: 6.00 Build 0)  -->
<svg version="1.1" id="Capa_1" xmlns="http://www.w3.org/2000/svg" xmlns:xlink="http://www.w3.org/1999/xlink" x="0px" y="0px"
	 viewBox="0 0 120 120" style="enable-background:new 0 0 120 120;" xml:space="preserve">
<style type="text/css">
	.st0{fill:#FFFFFF;}
</style>
<path class="st0" d="M118.2,53.4L98.7,19.7c0-0.1-0.1-0.1-0.1-0.2L91.1,6.7c-2.4-4.1-6.8-6.6-11.5-6.6L40.4,0
	c-4.7,0-9.2,2.5-11.5,6.6L9.2,40.2c-0.3,0.6-0.6,1.2-0.9,1.8L1.8,53.2c-1.2,2-1.8,4.3-1.8,6.6s0.6,4.6,1.8,6.6l6.3,10.9
	c0.3,0.8,0.6,1.6,1,2.3l19.6,33.7c2.4,4.1,6.8,6.6,11.5,6.6l39.2,0.1c4.7,0,9.2-2.5,11.5-6.6l19.6-33.6c0.2-0.4,0.4-0.8,0.6-1.2
	l7-12C120.6,62.5,120.6,57.5,118.2,53.4z M112.1,63l-1.8,3l-5.6,9.6c-0.1,0.2-0.2,0.4-0.3,0.7l-17.8,30.5l-1.8,3.1
	c-1.1,1.9-3.2,3.1-5.4,3.1l-39.2-0.1c-2.2,0-4.3-1.2-5.4-3.1l-1.8-3.1L15.3,76.1c-0.3-0.5-0.5-1.1-0.6-1.7l-5.1-8.8L8,62.8
	c-1.1-1.9-1.1-4.2,0-6.1L9.5,54l5.3-9.1c0.1-0.4,0.3-0.8,0.5-1.2l18-30.7l1.7-2.9C36.1,8.2,38.2,7,40.4,7l39.2,0.1
	c2.2,0,4.3,1.2,5.4,3.1l1.7,2.9l5.8,10.1c0,0,0,0,0.1,0.1L110.4,54l1.7,2.9c0.6,0.9,0.8,2,0.8,3.1C112.9,61,112.6,62.1,112.1,63z"/>
</svg>
