<?xml version="1.0" encoding="utf-8"?>
<!-- Generator: Adobe Illustrator 23.1.1, SVG Export Plug-In . SVG Version: 6.00 Build 0)  -->
<svg version="1.1" id="Capa_1" xmlns="http://www.w3.org/2000/svg" xmlns:xlink="http://www.w3.org/1999/xlink" x="0px" y="0px"
	 viewBox="0 0 214 272.3" style="enable-background:new 0 0 214 272.3;" xml:space="preserve">
<style type="text/css">
	.st0{fill:#FFFFFF;}
</style>
<path class="st0" d="M199.7,40.1l-25.8-25.8C164.8,5.1,152.4,0,139.5,0H48.6C21.8,0,0,21.8,0,48.6v175.1c0,26.8,21.8,48.6,48.6,48.6
	h116.7c26.8,0,48.6-21.8,48.6-48.6V74.5C214,61.6,208.9,49.2,199.7,40.1z M188.3,50.9c1.6,1.7,7.6,8,8.9,9.9h-33.6
	c-6.4,0-11.6-5.2-11.6-11.6V15.6c1.9,1.3,8.3,7.3,9.9,8.9L188.3,50.9z M167.7,257.7H46.2c-16.8,0-30.4-13.6-30.4-30.4V45
	c0-16.8,13.6-30.4,30.4-30.4h91.1V45c0,16.8,13.6,30.4,30.4,30.4h30.4v151.9C198.1,244,184.5,257.6,167.7,257.7z"/>
<g>
	<path class="st0" d="M113.7,152.5V87.8c0-3.7-3-6.8-6.8-6.8c-3.7,0-6.8,3-6.8,6.8v64.7L78,130.3c-2.6-2.6-6.9-2.6-9.5,0
		c-2.6,2.6-2.6,6.9,0,9.5l38.5,38.5l38.5-38.5c2.6-2.6,2.6-6.9,0-9.5c-2.6-2.6-6.9-2.6-9.5,0L113.7,152.5z"/>
	<path class="st0" d="M53,168.8c3.7,0,6.8,3,6.8,6.8v10.8c0,5.2,4.2,9.4,9.4,9.4h75.6c5.2,0,9.4-4.2,9.4-9.4v-10.8
		c0-3.7,3-6.8,6.8-6.8s6.8,3,6.8,6.8v10.8c0,12.7-10.3,22.9-22.9,22.9H69.2c-12.7,0-22.9-10.3-22.9-22.9v-10.8
		C46.2,171.8,49.2,168.8,53,168.8z"/>
</g>
</svg>
