<?xml version="1.0" encoding="utf-8"?>
<!-- Generator: Adobe Illustrator 23.1.1, SVG Export Plug-In . SVG Version: 6.00 Build 0)  -->
<svg version="1.1" id="Capa_1" xmlns="http://www.w3.org/2000/svg" xmlns:xlink="http://www.w3.org/1999/xlink" x="0px" y="0px"
	 viewBox="0 0 368.5 62.4" style="enable-background:new 0 0 368.5 62.4;" xml:space="preserve">
<style type="text/css">
	.st0{fill:#FFFFFF;}
</style>
<g>
	<path class="st0" d="M291.7,59.7h21l4.4-26.7L330,59.7h25.3l-16-30.3l24.5-26.9H338l-20,24.8l4.1-24.8h-20.6l-7,42.6h-27.9l1.1-6.6
		h20.3l2.7-14.6h-20.5l1.1-6.7h24.4l2.4-14.6h-44.5h-0.4h-51.6H201h-28l-11.1,24.3l-2-24.3h-29.4l-8.3,50l-1.2-50H86.7L52.9,59.7H74
		L80.3,49h21.4v10.7h19.2h1.4h18.4l5.2-31.3l2.7,31.3h14.2l14.9-31.9l-5.3,31.9h19.8l6.9-42.2h15.7l-7,42.2h20.5l7-42.2h15.3
		l-7,42.2h48.4 M101.7,35.6H88.4l13.3-23.5V35.6z"/>
	<path class="st0" d="M11.9,31.3c0-1.1,0.3-2.2,0.9-3.1l9.5-16c1.1-1.9,3.3-3.1,5.6-3.1l19,0c2.3,0,4.4,1.2,5.6,3.1l9.5,16
		c1.1,1.9,1.1,4.3,0,6.3l-9.5,16c-1.1,1.9-3.3,3.1-5.6,3.1l-19,0c-2.3,0-4.4-1.2-5.6-3.1l-9.5-16C12.2,33.5,11.9,32.4,11.9,31.3
		 M59.3,31.4c0-0.5-0.1-1-0.4-1.5l-9.5-16c-0.5-0.9-1.5-1.5-2.6-1.5l-19,0c-1.1,0-2.1,0.6-2.6,1.5l-9.5,16c-0.5,0.9-0.5,2,0,2.9
		l9.5,16c0.5,0.9,1.5,1.5,2.6,1.5l19,0c1.1,0,2.1-0.6,2.6-1.5l9.5-16C59.1,32.4,59.3,31.9,59.3,31.4"/>
	<path class="st0" d="M4.7,31.3c0-1.1,0.3-2.2,0.9-3.1l9.5-16c1.1-1.9,3.3-3.1,5.6-3.1l19,0c2.3,0,4.4,1.2,5.6,3.1l9.5,16
		c1.1,1.9,1.1,4.3,0,6.3l-9.5,16c-1.1,1.9-3.3,3.1-5.6,3.1l-19,0c-2.3,0-4.4-1.2-5.6-3.1l-9.5-16C4.9,33.5,4.7,32.4,4.7,31.3
		 M52,31.3c0-0.5-0.1-1-0.4-1.5l-9.5-16c-0.5-0.9-1.5-1.5-2.6-1.5l-19,0c-1.1,0-2.1,0.6-2.6,1.5l-9.5,16c-0.5,0.9-0.5,2,0,2.9
		l9.5,16c0.5,0.9,1.5,1.5,2.6,1.5l19,0c1.1,0,2.1-0.6,2.6-1.5l9.5-16C51.9,32.4,52,31.9,52,31.3"/>
	<path class="st0" d="M8.2,37.6c0-1.1,0.3-2.2,0.9-3.1l9.5-16c1.1-1.9,3.3-3.1,5.6-3.1l19,0c2.3,0,4.4,1.2,5.6,3.1l9.5,16
		c1.1,1.9,1.1,4.3,0,6.3l-9.5,16c-1.1,1.9-3.3,3.1-5.6,3.1l-19,0c-2.3,0-4.4-1.2-5.6-3.1l-9.5-16C8.5,39.8,8.2,38.7,8.2,37.6
		 M55.6,37.7c0-0.5-0.1-1-0.4-1.5l-9.5-16c-0.5-0.9-1.5-1.5-2.6-1.5l-19,0c-1.1,0-2.1,0.6-2.6,1.5l-9.5,16c-0.5,0.9-0.5,2,0,2.9
		l9.5,16c0.5,0.9,1.5,1.5,2.6,1.5l19,0c1.1,0,2.1-0.6,2.6-1.5l9.5-16C55.4,38.7,55.6,38.2,55.6,37.7"/>
	<path class="st0" d="M8.2,25.1c0-1.1,0.3-2.2,0.9-3.1l9.5-16c1.1-1.9,3.3-3.1,5.6-3.1l19,0c2.3,0,4.4,1.2,5.6,3.1l9.5,16
		c1.1,1.9,1.1,4.3,0,6.3l-9.5,16c-1.1,1.9-3.3,3.1-5.6,3.1l-19,0c-2.3,0-4.4-1.2-5.6-3.1l-9.5-16C8.5,27.3,8.2,26.2,8.2,25.1
		 M55.6,25.2c0-0.5-0.1-1-0.4-1.5l-9.5-16c-0.5-0.9-1.5-1.5-2.6-1.5l-19,0c-1.1,0-2.1,0.6-2.6,1.5l-9.5,16c-0.5,0.9-0.5,2,0,2.9
		l9.5,16c0.5,0.9,1.5,1.5,2.6,1.5l19,0c1.1,0,2.1-0.6,2.6-1.5l9.5-16C55.5,26.2,55.6,25.7,55.6,25.2"/>
	<path class="st0" d="M79.2,2.4l-23.8,0c-0.8-0.1-1.5,0.7-1.1,1.5l11.7,20.3c0.3,0.8,1.4,0.9,1.9,0.1L79.9,4
		C80.3,3.4,79.9,2.6,79.2,2.4"/>
</g>
</svg>
