<?xml version="1.0" encoding="utf-8"?>
<!-- Generator: Adobe Illustrator 23.1.1, SVG Export Plug-In . SVG Version: 6.00 Build 0)  -->
<svg version="1.1" id="Capa_1" xmlns="http://www.w3.org/2000/svg" xmlns:xlink="http://www.w3.org/1999/xlink" x="0px" y="0px"
	 viewBox="0 0 612 792" style="enable-background:new 0 0 612 792;" xml:space="preserve">
<style type="text/css">
	.st0{clip-path:url(#SVGID_2_);fill:#86888B;}
	.st1{clip-path:url(#SVGID_2_);fill:#CB2328;}
</style>
<g>
	<defs>
		<rect id="SVGID_1_" x="155.2" y="360.7" width="301.7" height="69.8"/>
	</defs>
	<clipPath id="SVGID_2_">
		<use xlink:href="#SVGID_1_"  style="overflow:visible;"/>
	</clipPath>
	<path class="st0" d="M266.5,422v8.3h-1.9l-0.6-1.6c-1.2,0.8-2.8,1.8-5.9,1.8c-4,0-8.9-2-8.9-8.2c0-4.2,2.5-8.3,8.8-8.3
		c3.6,0,7.6,1.3,8.4,5.3h-3.1c-0.4-0.8-1.2-2.7-4.8-2.7c-4.9,0-6.1,3.3-6.1,5.5c0,3.7,2.5,5.6,5.9,5.6c3,0,4.7-1.1,5.5-3.3h-5.5V422
		H266.5"/>
	<path class="st0" d="M273.9,414.4h9.5c3.7,0,6.4,0.8,6.4,4.7c0,2.9-2.1,4.5-4.4,4.6l4.8,6.4h-3.8l-4.6-6.2H277v6.2h-3.1V414.4
		 M282.9,421.4c2.5,0,3.8-0.4,3.8-2.2c0-1.8-1.3-2.2-3.8-2.2H277v4.4H282.9z"/>
	<path class="st0" d="M305.9,414c6.9,0,9.4,4.1,9.4,8.4c0,3.3-1.9,8.2-9.4,8.2c-7.5,0-9.4-4.9-9.4-8.2
		C296.5,418,298.9,414,305.9,414 M312.2,422.2c0-3.8-2.7-5.6-6.3-5.6c-3.6,0-6.3,1.8-6.3,5.6c0,4.5,3.4,5.7,6.3,5.7
		C308.8,427.9,312.2,426.7,312.2,422.2"/>
	<path class="st0" d="M339,423.4c0,5.1-3.2,7.2-8.4,7.2c-5.1,0-8.4-2.1-8.4-7.2v-9h3.1v8.8c0,2.6,0.9,4.7,5.3,4.7s5.3-2.1,5.3-4.7
		v-8.8h3.1V423.4"/>
	<path class="st0" d="M347.1,414.4h8.8c2.7,0,7.1,0,7.1,4.8c0,4.8-4.4,4.8-7.1,4.8h-5.7v6.1h-3.1V414.4 M356.6,421.4
		c1.8,0,3.3-0.2,3.3-2.2c0-2-1.5-2.2-3.3-2.2h-6.4v4.4H356.6z"/>
	<path class="st1" d="M202.8,369.9h-10.6v19.3l0,0c0.6,6.2,4,9.6,10.2,10.2l0,0h12.4v-8.8h-9.3c-1.7-0.2-2.5-1-2.6-2.6v-9.5V369.9"
		/>
	<path class="st1" d="M240.6,380.8c0,0-9,0-9,0c-0.9,0-1.7-0.7-1.7-1.6s0.8-1.6,1.7-1.6l15.8,0v-7.8l-18.4,0c-5.3,0-9.1,3.9-9.1,9.4
		c0,5.2,3.4,8.4,9,8.4c0,0,9,0,9,0c0.9,0,1.7,0.7,1.7,1.6c0,0.9-0.8,1.6-1.7,1.6l-17.6,0v8.8l20.2,0c5.3,0,9-3.9,9-9.4
		S245.9,380.8,240.6,380.8"/>
	<path class="st1" d="M176.3,385.5c-1.1-1-1.1-2.7,0-3.7l12.4-11.9h-13.1l-8,7.5c-0.8,0.7-1.4,1.6-1.8,2.5v-9.9h-10.6v29.6h5.2h5.4
		v-12.1c0.4,0.9,1.1,1.7,1.8,2.5l10.2,9.6l13.1,0L176.3,385.5"/>
	<path class="st0" d="M394,360.7h-0.6h-10.1v28.4l0,0c0.6,6.3,4.1,9.8,10.3,10.4l0,0h11.5v-8.6h-8.5c-1.7-0.2-2.5-1-2.7-2.7v-9.9
		h11.1v-8.6H394V360.7"/>
	<polygon class="st0" points="409.4,369.7 409.4,399.5 420.2,399.5 420.2,369.7 419.5,369.7 	"/>
	<path class="st0" d="M304.7,369.7L304.7,369.7L304.7,369.7l-5.1,0c-3.3,0-6.1,1.4-8.2,4c-2.1-2.6-4.9-4-8.2-4H277
		c-1.8,0-3.4,0.4-4.9,1.3v-1.3h-11.3v29.8h11.3v-18.6c0.2-1.6,1-2.5,2.7-2.6h5.3c1.7,0.2,2.5,1,2.7,2.6v18.6h10.8v-18.6
		c0.2-1.6,1-2.5,2.7-2.6h5.4c1.7,0.2,2.5,1,2.7,2.6v18.6H315V380l0,0C314.4,373.7,310.9,370.2,304.7,369.7"/>
	<path class="st0" d="M369,369.7L369,369.7c-6.3,0.6-9.8,4.1-10.4,10.4l0,0v19.5h10.8v-18.6c0.2-1.6,1-2.5,2.7-2.6h7v-8.6h-0.6H369"
		/>
	<path class="st0" d="M456.9,380c-0.6-6.3-4.1-9.8-10.4-10.3l0,0h0h-22.1v29.8h10.8v-21.2h8.3c1.6,0.2,2.5,1,2.7,2.6v18.6h10.8
		L456.9,380L456.9,380"/>
	<path class="st0" d="M333.6,369.7c-4.2,0.1-7.7,1.6-10.5,4.4c-2.8,2.8-4.3,6.3-4.4,10.5v0v0c0.1,4.2,1.6,7.7,4.4,10.5
		c2.8,2.8,6.3,4.2,10.5,4.4h7.5v-8.6h-4.8c-2.8-0.3-4.7-1.4-5.6-3.4c-0.3-0.7-0.7-1.8-0.8-2.9v-0.1c0-0.9,0.2-1.9,0.7-2.8
		c0.3-0.6,0.7-1.1,1.2-1.6c1.2-1.2,2.7-1.8,4.5-1.8h7.3v21.2h10.8v-29.9h-0.6H333.6"/>
</g>
</svg>
