<?xml version="1.0" encoding="utf-8"?>
<!-- Generator: Adobe Illustrator 23.1.1, SVG Export Plug-In . SVG Version: 6.00 Build 0)  -->
<svg version="1.1" id="Capa_1" xmlns="http://www.w3.org/2000/svg" xmlns:xlink="http://www.w3.org/1999/xlink" x="0px" y="0px"
	 viewBox="0 0 424.1 82.1" style="enable-background:new 0 0 424.1 82.1;" xml:space="preserve">
<style type="text/css">
	.st0{fill:#FFFFFF;}
</style>
<g>
	<g>
		<path class="st0" d="M37.2,35c1,1,2.4,1.6,3.9,1.6c1.4,0,2.8-0.6,3.9-1.6l22-22c0.5-0.5,0.8-1.2,0.8-1.9c0-0.8-0.4-1.6-1-2.1
			l-0.3-0.3C59.1,3,50.3,0,41,0c-9.4,0-18.3,3.1-25.7,9c-0.6,0.5-1,1.3-1,2.1s0.4,1.4,0.7,1.8L37.2,35z"/>
		<path class="st0" d="M66.8,68.9L44.9,47c-1-1-2.4-1.6-3.9-1.6S38.2,46,37.1,47L15,69.2c-0.2,0.3-0.7,0.9-0.7,1.8
			c0,0.8,0.4,1.6,1,2.1c7.3,5.9,16.2,9,25.7,9c9.3,0,18.1-3,25.4-8.8l0.2-0.2c0.7-0.5,1-1.3,1-2.1c0-0.7-0.3-1.4-0.8-1.9L66.8,68.9z
			"/>
		<path class="st0" d="M35,37.1l-22-22c-0.5-0.5-1.2-0.8-1.9-0.8c-0.8,0-1.6,0.4-2.1,1l-0.3,0.3C3,23,0,31.8,0,41
			c0,9.4,3.1,18.3,9,25.7c0.5,0.6,1.3,1,2.1,1s1.4-0.4,1.8-0.7L35,44.9c1-1,1.6-2.4,1.6-3.9C36.6,39.6,36,38.2,35,37.1z"/>
	</g>
</g>
<g>
	<path class="st0" d="M94.3,41c0-2.9,0.6-5.8,1.7-8.4c1.1-2.7,2.7-5,4.6-6.9c1.9-1.9,4.3-3.5,7-4.6c2.7-1.1,5.6-1.7,8.6-1.7
		c3.8,0,7.3,0.9,10.6,2.7c3.3,1.8,5.9,4.2,7.8,7.3l-3.7,2.3c-1.6-2.5-3.7-4.5-6.3-5.9c-2.6-1.5-5.4-2.2-8.4-2.2
		c-3.2,0-6.1,0.8-8.8,2.3c-2.7,1.5-4.8,3.6-6.3,6.3c-1.5,2.7-2.3,5.6-2.3,8.9c0,3.3,0.8,6.2,2.3,8.9c1.6,2.7,3.7,4.8,6.3,6.3
		c2.7,1.5,5.6,2.3,8.8,2.3c3,0,5.9-0.7,8.5-2.2c2.6-1.4,4.7-3.4,6.3-5.9l3.7,2.3c-2,3-4.6,5.5-7.8,7.2s-6.8,2.7-10.6,2.7
		c-3,0-5.9-0.6-8.6-1.7c-2.7-1.1-5-2.7-7-4.6s-3.5-4.2-4.6-6.9C94.9,46.8,94.3,44,94.3,41z"/>
	<path class="st0" d="M143.9,62h-4.3V20h4.3V62z"/>
	<path class="st0" d="M155.1,20.2h5.4l-7.2,7.1h-4.5L155.1,20.2z M154.5,31.9V62h-4.3V31.9H154.5z"/>
	<path class="st0" d="M185.9,42.7V62h-4.3V43.4c0-2.4-0.7-4.4-2.2-5.9c-1.4-1.5-3.3-2.3-5.7-2.3c-2.5,0-4.6,0.8-6.2,2.4
		s-2.4,3.7-2.4,6.1V62h-4.3V31.9h4.3V36c1-1.5,2.3-2.6,4-3.5c1.6-0.8,3.4-1.3,5.4-1.3c3.3,0,6.1,1.1,8.2,3.3
		C184.8,36.7,185.9,39.5,185.9,42.7z"/>
	<path class="st0" d="M196.4,25.7c-0.6,0.6-1.2,0.8-2,0.8c-0.8,0-1.5-0.3-2-0.8c-0.6-0.6-0.8-1.2-0.8-2c0-0.8,0.3-1.5,0.8-2
		c0.6-0.6,1.2-0.8,2-0.8c0.8,0,1.5,0.3,2,0.8s0.8,1.2,0.8,2C197.2,24.5,196.9,25.1,196.4,25.7z M196.5,31.9V62h-4.3V31.9H196.5z"/>
	<path class="st0" d="M209.3,38.6c-2.2,2.3-3.4,5.1-3.4,8.3s1.1,6.1,3.4,8.4c2.2,2.3,5,3.4,8.1,3.4c1.9,0,3.7-0.4,5.3-1.3
		s3-2.1,4.1-3.6l3.2,2.3c-1.5,2-3.3,3.6-5.5,4.8s-4.6,1.7-7.2,1.7c-2.9,0-5.6-0.7-8-2.1c-2.4-1.4-4.3-3.3-5.7-5.7
		c-1.4-2.4-2.1-5-2.1-7.9s0.7-5.5,2.1-7.9c1.4-2.4,3.3-4.3,5.7-5.7c2.4-1.4,5.1-2.1,8-2.1c2.6,0,5,0.6,7.2,1.7s4,2.7,5.5,4.7
		l-3.2,2.3c-1.1-1.5-2.5-2.7-4.1-3.6c-1.7-0.9-3.4-1.3-5.3-1.3C214.3,35.2,211.6,36.3,209.3,38.6z"/>
	<path class="st0" d="M232.4,53.7c0-2.5,0.8-4.5,2.5-6.1s4.1-2.4,7.1-2.6l9.9-0.6v-2.8c0-2-0.6-3.5-1.8-4.6
		c-1.2-1.1-2.9-1.7-5.1-1.7c-3,0-5.7,1.1-8.1,3.2l-2.3-3.1c3-2.6,6.6-4,10.9-4c3.2,0,5.8,0.9,7.7,2.6c1.9,1.7,2.9,4.1,2.9,7v15.4
		c0,0.6,0.2,1,0.5,1.3s0.8,0.5,1.4,0.5h1.5V62h-2.3c-1.4,0-2.6-0.4-3.6-1.1s-1.5-1.8-1.6-3c-1,1.5-2.4,2.6-4,3.5s-3.5,1.3-5.5,1.3
		c-2.9,0-5.4-0.8-7.3-2.5S232.4,56.3,232.4,53.7z M236.6,53.7c0,1.5,0.6,2.8,1.9,3.8s2.8,1.5,4.7,1.5c2.5,0,4.5-0.8,6.2-2.4
		s2.5-3.5,2.5-5.7v-3l-9.2,0.6c-2,0.1-3.5,0.7-4.5,1.6S236.6,52.2,236.6,53.7z"/>
	<path class="st0" d="M274.4,49h7.9c0.3,2.2,1.2,3.9,2.8,5.1s3.6,1.9,6.1,1.9c2.3,0,4-0.5,5.2-1.5s1.8-2.2,1.8-3.8
		c0-1.2-0.5-2.3-1.4-3.2s-2.2-1.6-3.8-1.9l-7.1-1.8c-3.8-1-6.6-2.4-8.4-4.4c-1.8-1.9-2.8-4.5-2.8-7.6c0-3.8,1.4-6.8,4.1-9.1
		c2.7-2.3,6.2-3.5,10.4-3.5c4.3,0,7.9,1.2,10.8,3.7c2.9,2.5,4.6,5.7,5.2,9.7h-7.9c-0.5-2.1-1.4-3.8-2.8-5c-1.4-1.2-3.2-1.8-5.4-1.8
		c-1.9,0-3.4,0.5-4.6,1.4c-1.2,0.9-1.8,2.2-1.8,3.8c0,2.5,1.7,4.2,5.2,5.1l7.1,1.9c3.9,1,6.8,2.5,8.6,4.4c1.8,1.9,2.7,4.4,2.7,7.5
		c0,3.6-1.4,6.6-4.2,9s-6.5,3.6-11,3.6c-4.6,0-8.4-1.3-11.5-3.8S274.7,53.1,274.4,49z"/>
	<path class="st0" d="M309.5,53.3c0-2.8,0.9-4.9,2.7-6.5s4.4-2.5,7.7-2.7l9.1-0.7v-1.2c0-1.5-0.5-2.7-1.5-3.6
		c-1-0.9-2.4-1.3-4.2-1.3c-2.7,0-5.5,0.9-8.2,2.8l-3.3-5.6c3.8-2.8,7.9-4.1,12.5-4.1c3.7,0,6.7,1,9,3c2.3,2,3.4,4.6,3.4,7.9v12.2
		c0,1.2,0.6,1.8,1.7,1.8h1.6V62h-3.6c-1.5,0-2.8-0.3-3.9-1s-1.9-1.5-2.5-2.7c-1.1,1.4-2.5,2.5-4.2,3.3s-3.5,1.2-5.5,1.2
		c-3.1,0-5.6-0.9-7.7-2.7S309.5,56,309.5,53.3z M317,53.2c0,1.1,0.5,1.9,1.4,2.6s2.1,1,3.6,1c2,0,3.6-0.6,5-1.7s2.1-2.4,2.1-4v-2
		l-8.1,0.7C318.3,50.1,317,51.2,317,53.2z"/>
	<path class="st0" d="M351.4,62h-7.9V20h7.9V62z"/>
	<path class="st0" d="M356.8,50.7V31h7.9v18.2c0,1.9,0.6,3.5,1.8,4.8s2.7,1.9,4.7,1.9s3.5-0.6,4.7-1.8s1.8-2.8,1.8-4.8V31h7.9v31
		h-7.9v-2.8c-2.3,2.3-5.1,3.5-8.5,3.5c-3.6,0-6.5-1.2-8.8-3.5S356.8,54.1,356.8,50.7z"/>
	<path class="st0" d="M424.1,62h-7.8v-2.9c-2.9,2.5-6.2,3.7-10,3.7c-2.3,0-4.4-0.4-6.5-1.3s-3.8-2-5.3-3.5s-2.6-3.2-3.5-5.2
		s-1.3-4.1-1.3-6.3s0.4-4.3,1.3-6.3s2-3.8,3.5-5.2s3.2-2.6,5.3-3.5c2.1-0.9,4.2-1.3,6.5-1.3c3.7,0,7.1,1.2,10,3.6V20h7.9V62z
		 M416.4,46.5c0-2.6-0.9-4.9-2.8-6.7c-1.8-1.8-4.1-2.7-6.7-2.7c-2.6,0-4.8,0.9-6.7,2.8s-2.8,4.1-2.8,6.7c0,2.6,0.9,4.8,2.8,6.7
		s4.1,2.8,6.6,2.8c2.6,0,4.8-0.9,6.7-2.8S416.4,49.1,416.4,46.5z"/>
</g>
</svg>
