<?xml version="1.0" encoding="utf-8"?>
<!-- Generator: Adobe Illustrator 23.1.1, SVG Export Plug-In . SVG Version: 6.00 Build 0)  -->
<svg version="1.1" id="Capa_1" xmlns="http://www.w3.org/2000/svg" xmlns:xlink="http://www.w3.org/1999/xlink" x="0px" y="0px"
	 viewBox="0 0 412.2 138.1" style="enable-background:new 0 0 412.2 138.1;" xml:space="preserve">
<style type="text/css">
	.st0{fill:#FFFFFF;}
</style>
<g>
	<path class="st0" d="M71.5,93.8h1.7l1.3,6c0.2,0.7,0.3,1.5,0.4,2.2c0.1,0.8,0.2,1.5,0.4,2.4c0-0.1,0-0.2,0-0.3c0-0.1,0-0.1,0-0.1
		l0.3-1.7l0.2-1.6l0.2-1.1l1.2-5.9H79l1.3,14.7h-1.9l-0.3-5c0-0.3,0-0.5,0-0.7c0-0.2,0-0.3,0-0.5l-0.1-2l0-1.8c0,0,0,0,0-0.1
		c0,0,0-0.1,0-0.2l0,0.3c-0.1,0.3-0.1,0.7-0.1,0.9c0,0.3-0.1,0.5-0.1,0.7l-0.2,1.3l-0.1,0.5l-1.2,6.4h-1.3l-1.2-5.5
		c-0.2-0.7-0.3-1.5-0.4-2.2c-0.1-0.8-0.2-1.5-0.3-2.4l-0.6,10.1h-1.9L71.5,93.8z"/>
	<path class="st0" d="M86.8,93.8h1.5l3.1,14.7h-2l-0.6-2.9H86l-0.6,2.9h-1.9L86.8,93.8z M88.7,104l-0.4-2.3
		c-0.3-1.6-0.5-3.3-0.7-5.1c-0.1,0.9-0.2,1.8-0.3,2.7c-0.1,0.9-0.3,1.9-0.5,2.9l-0.4,1.9H88.7z"/>
	<path class="st0" d="M95.3,93.8h1.8l2,5.9c0.6,1.7,1.1,3.4,1.5,5.3c-0.2-1.1-0.3-2.2-0.4-3.1c-0.1-0.9-0.1-1.8-0.1-2.6v-5.5h2v14.7
		h-1.9l-2.2-6.6c-0.2-0.6-0.4-1.2-0.6-1.9c-0.2-0.6-0.3-1.3-0.5-2c0-0.1,0-0.2-0.1-0.3c0-0.1-0.1-0.3-0.1-0.4c0,0.2,0,0.3,0,0.4
		c0,0.1,0,0.2,0,0.3l0.1,1.5l0.1,1.8c0,0.1,0,0.2,0,0.4c0,0.1,0,0.3,0,0.5l0.1,6.4h-1.9V93.8z"/>
	<path class="st0" d="M107.2,93.8h1.9v10.4c0,1.1,0.1,1.8,0.3,2.1c0.2,0.3,0.6,0.5,1.2,0.5c0.6,0,1-0.2,1.1-0.5
		c0.2-0.3,0.3-0.9,0.3-1.9V93.8h1.9v10.7c0,1.6-0.2,2.7-0.7,3.2c-0.6,0.6-1.5,1-2.7,1c-1.3,0-2.2-0.4-2.8-1.2
		c-0.4-0.6-0.6-1.6-0.6-3.2V93.8z"/>
	<polygon class="st0" points="118.9,93.8 124.2,93.8 124.2,95.4 120.9,95.4 120.9,100.1 123.9,100.1 123.9,101.7 120.9,101.7 
		120.9,108.4 118.9,108.4 	"/>
	<path class="st0" d="M130.3,93.8h1.5l3.1,14.7h-2l-0.6-2.9h-2.9l-0.6,2.9h-1.9L130.3,93.8z M132.2,104l-0.4-2.3
		c-0.3-1.6-0.5-3.3-0.7-5.1c-0.1,0.9-0.2,1.8-0.3,2.7c-0.1,0.9-0.3,1.9-0.5,2.9l-0.4,1.9H132.2z"/>
	<path class="st0" d="M144.5,94v1.8c-0.5-0.2-0.9-0.4-1.3-0.4c-0.5,0-0.9,0.1-1.2,0.3c-0.3,0.2-0.6,0.6-0.8,1.1
		c-0.2,0.5-0.4,1.1-0.5,1.8c-0.1,0.7-0.2,1.6-0.2,2.6c0,3.6,0.9,5.4,2.8,5.4c0.3,0,0.7-0.1,1.2-0.3v1.8c-0.5,0.3-1,0.4-1.6,0.4
		c-3,0-4.5-2.4-4.5-7.3c0-2.6,0.4-4.6,1.1-5.9c0.7-1.3,1.8-1.9,3.3-1.9C143.4,93.6,143.9,93.7,144.5,94"/>
	<polygon class="st0" points="147.7,93.8 154.1,93.8 154.1,95.5 151.9,95.5 151.9,108.4 150,108.4 150,95.5 147.7,95.5 	"/>
	<path class="st0" d="M157.9,93.8h1.9v10.4c0,1.1,0.1,1.8,0.3,2.1c0.2,0.3,0.6,0.5,1.2,0.5c0.6,0,1-0.2,1.1-0.5
		c0.2-0.3,0.3-0.9,0.3-1.9V93.8h1.9v10.7c0,1.6-0.2,2.7-0.7,3.2c-0.6,0.6-1.5,1-2.7,1c-1.3,0-2.2-0.4-2.8-1.2
		c-0.4-0.6-0.6-1.6-0.6-3.2V93.8z"/>
	<path class="st0" d="M169.7,93.8h2.6c1.1,0,1.9,0.3,2.4,0.8c0.7,0.7,1,1.7,1,3.1c0,1.1-0.2,1.9-0.5,2.5c-0.4,0.6-0.9,1-1.5,1.2
		l2.7,7.1h-2l-2.7-7.2v7.2h-2V93.8z M171.7,100.3c0.8,0,1.3-0.2,1.6-0.5c0.3-0.4,0.5-1,0.5-1.8c0-0.5,0-0.8-0.1-1.2
		c-0.1-0.3-0.2-0.6-0.3-0.8c-0.1-0.2-0.3-0.4-0.6-0.4c-0.2-0.1-0.5-0.1-0.8-0.1h-0.3V100.3z"/>
	<rect x="180.6" y="93.8" class="st0" width="2" height="14.7"/>
	<path class="st0" d="M187.6,93.8h1.8l2,5.9c0.6,1.7,1.1,3.4,1.5,5.3c-0.2-1.1-0.3-2.2-0.4-3.1c-0.1-0.9-0.1-1.8-0.1-2.6v-5.5h2
		v14.7h-1.9l-2.2-6.6c-0.2-0.6-0.4-1.2-0.6-1.9c-0.2-0.6-0.3-1.3-0.5-2c0-0.1,0-0.2-0.1-0.3c0-0.1-0.1-0.3-0.1-0.4
		c0,0.2,0,0.3,0,0.4c0,0.1,0,0.2,0,0.3l0.1,1.5l0.1,1.8c0,0.1,0,0.2,0,0.4c0,0.1,0,0.3,0,0.5l0.1,6.4h-1.9V93.8z"/>
	<path class="st0" d="M202.9,100.7h3.6v0.6c0,2.9-0.3,4.8-0.8,5.8c-0.5,1-1.4,1.5-2.8,1.5c-1.4,0-2.4-0.6-3-1.7
		c-0.6-1.1-0.9-3.1-0.9-5.7c0-3.1,0.3-5.1,1-6.1c0.6-1,1.5-1.4,2.8-1.4c1,0,1.7,0.2,2.3,0.7c0.5,0.5,1,1.2,1.3,2.3l-1.8,0.8
		c-0.1-0.4-0.2-0.7-0.3-1c-0.1-0.3-0.2-0.5-0.3-0.6c-0.2-0.3-0.6-0.4-1.1-0.4c-0.7,0-1.1,0.4-1.3,1.2c-0.2,0.8-0.4,2.4-0.4,4.6
		c0,2.2,0.1,3.7,0.4,4.5c0.2,0.8,0.7,1.2,1.4,1.2c0.6,0,1.1-0.3,1.3-0.8c0.3-0.6,0.4-1.6,0.4-2.9v-0.4v-0.3h-1.7V100.7z"/>
	<path class="st0" d="M217.9,93.8h2.6c1.1,0,1.9,0.3,2.4,0.8c0.7,0.7,1,1.7,1,3.1c0,1.1-0.2,1.9-0.5,2.5c-0.4,0.6-0.9,1-1.5,1.2
		l2.7,7.1h-2l-2.7-7.2v7.2h-2V93.8z M219.9,100.3c0.8,0,1.3-0.2,1.6-0.5c0.3-0.4,0.5-1,0.5-1.8c0-0.5,0-0.8-0.1-1.2
		c-0.1-0.3-0.2-0.6-0.3-0.8c-0.1-0.2-0.3-0.4-0.6-0.4c-0.2-0.1-0.5-0.1-0.8-0.1h-0.3V100.3z"/>
	<polygon class="st0" points="228.9,93.8 234.1,93.8 234.1,95.4 230.8,95.4 230.8,100.1 233.8,100.1 233.8,101.7 230.8,101.7 
		230.8,106.8 234.1,106.8 234.1,108.4 228.9,108.4 	"/>
	<path class="st0" d="M243.6,94.1V96c-0.6-0.4-1.1-0.6-1.6-0.6c-0.5,0-0.9,0.2-1.3,0.6c-0.3,0.3-0.5,0.8-0.5,1.4
		c0,0.5,0.1,1,0.4,1.3c0.1,0.2,0.3,0.4,0.6,0.8c0.3,0.3,0.6,0.7,1.1,1.1c0.8,0.8,1.4,1.5,1.6,2.1c0.3,0.6,0.4,1.3,0.4,2.1
		c0,1.1-0.3,2.1-1,2.8c-0.6,0.7-1.5,1.1-2.5,1.1c-0.8,0-1.6-0.2-2.2-0.7v-2c0.7,0.5,1.3,0.8,1.9,0.8c0.5,0,1-0.2,1.3-0.5
		c0.3-0.4,0.5-0.8,0.5-1.5c0-0.5-0.1-1-0.4-1.4c-0.1-0.2-0.3-0.4-0.5-0.7c-0.2-0.3-0.5-0.6-0.8-0.9c-0.5-0.5-0.9-0.9-1.2-1.3
		c-0.3-0.4-0.6-0.7-0.7-1c-0.3-0.6-0.5-1.3-0.5-2.1c0-1.1,0.3-2.1,0.9-2.7c0.6-0.7,1.4-1,2.4-1C242.2,93.6,242.9,93.7,243.6,94.1"/>
	<path class="st0" d="M256,101.5c0,2.6-0.3,4.4-0.9,5.5c-0.6,1.1-1.5,1.6-2.9,1.6c-1.4,0-2.4-0.6-3-1.8c-0.6-1.1-0.9-3.2-0.9-6.1
		c0-2.6,0.3-4.5,0.9-5.5c0.6-1.1,1.6-1.6,2.9-1.6c1.2,0,2.1,0.4,2.7,1.3c0.4,0.6,0.7,1.4,0.9,2.4C255.9,98.2,256,99.6,256,101.5
		 M253.9,101.7c0-2.5-0.1-4.2-0.3-5.1c-0.2-0.8-0.7-1.3-1.4-1.3c-0.7,0-1.2,0.4-1.4,1.1c-0.2,0.8-0.3,2.3-0.3,4.7
		c0,2.1,0.1,3.6,0.4,4.5c0.2,0.8,0.7,1.2,1.4,1.2c0.7,0,1.1-0.4,1.4-1.1C253.8,105,253.9,103.6,253.9,101.7"/>
	<polygon class="st0" points="260.7,93.8 262.7,93.8 262.7,106.8 265.9,106.8 265.9,108.4 260.7,108.4 	"/>
	<path class="st0" d="M268.2,93.8h1.9l0.9,5.4l0.2,1l0.3,2.1c0.1,0.4,0.1,0.7,0.1,1c0,0.3,0.1,0.6,0.1,0.8l0.1,0.7
		c0-0.1,0-0.3,0-0.4c0-0.1,0-0.2,0-0.3l0.3-1.7l0.3-2.2c0-0.2,0.1-0.4,0.1-0.6s0.1-0.3,0.1-0.5l1-5.4h1.8l-2.9,14.7h-1.6L268.2,93.8
		z"/>
	<polygon class="st0" points="279.3,93.8 284.6,93.8 284.6,95.4 281.3,95.4 281.3,100.1 284.2,100.1 284.2,101.7 281.3,101.7 
		281.3,106.8 284.6,106.8 284.6,108.4 279.3,108.4 	"/>
	<path class="st0" d="M289.1,93.8h2.4c0.7,0,1.4,0.1,1.9,0.2c0.5,0.2,0.9,0.4,1.3,0.8c0.6,0.6,0.9,1.4,1.2,2.4
		c0.2,0.9,0.4,2.3,0.4,4.1c0,1.6-0.1,2.9-0.4,4c-0.3,1-0.7,1.7-1.3,2.2c-0.7,0.6-2,1-3.8,1h-1.6V93.8z M291.1,106.7
		c1.2,0,2-0.4,2.4-1.1c0.4-0.7,0.6-2.1,0.6-4.2c0-2.3-0.2-3.8-0.6-4.7c-0.4-0.8-1.1-1.3-2.2-1.3h-0.2V106.7z"/>
	<path class="st0" d="M313.6,87.3h21l4.4-26.7l12.9,26.7h25.3l-16-30.3L385.7,30h-25.8l-20,24.8L344,30h-20.6l-7,42.6h-27.9l1.1-6.6
		h20.3l2.7-14.6h-20.5l1.1-6.7h24.4l2.4-14.6h-44.5H275h-51.6h-0.6h-28l-11.1,24.3l-2-24.3h-29.4L144,80l-1.2-50h-34.2L74.7,87.3
		h21.2l6.3-10.7h21.4v10.7h19.2h1.4h18.4l5.2-31.3l2.7,31.3h14.2l14.9-31.9l-5.3,31.9h19.8L221,45h15.7l-7,42.2h20.5l7-42.2h15.3
		l-7,42.2H314 M123.5,63.2h-13.3l13.3-23.5V63.2z"/>
	<path class="st0" d="M33.7,58.8c0-1.1,0.3-2.2,0.9-3.1l9.5-16c1.1-1.9,3.3-3.1,5.6-3.1l19,0c2.3,0,4.4,1.2,5.6,3.1l9.5,16
		c1.1,1.9,1.1,4.3,0,6.3l-9.5,16c-1.1,1.9-3.3,3.1-5.6,3.1l-19,0c-2.3,0-4.4-1.2-5.6-3.1l-9.5-16C34,61,33.7,59.9,33.7,58.8
		 M81.1,58.9c0-0.5-0.1-1-0.4-1.5l-9.5-16c-0.5-0.9-1.5-1.5-2.6-1.5l-19,0c-1.1,0-2.1,0.6-2.6,1.5l-9.5,16c-0.5,0.9-0.5,2,0,2.9
		l9.5,16c0.5,0.9,1.5,1.5,2.6,1.5l19,0c1.1,0,2.1-0.6,2.6-1.5l9.5-16C81,59.9,81.1,59.4,81.1,58.9"/>
	<path class="st0" d="M26.5,58.8c0-1.1,0.3-2.2,0.9-3.1l9.5-16c1.1-1.9,3.3-3.1,5.6-3.1l19,0c2.3,0,4.4,1.2,5.6,3.1l9.5,16
		c1.1,1.9,1.1,4.3,0,6.3l-9.5,16c-1.1,1.9-3.3,3.1-5.6,3.1l-19,0c-2.3,0-4.4-1.2-5.6-3.1l-9.5-16C26.8,61,26.5,59.9,26.5,58.8
		 M73.9,58.9c0-0.5-0.1-1-0.4-1.5l-9.5-16c-0.5-0.9-1.5-1.5-2.6-1.5l-19,0c-1.1,0-2.1,0.6-2.6,1.5l-9.5,16c-0.5,0.9-0.5,2,0,2.9
		l9.5,16c0.5,0.9,1.5,1.5,2.6,1.5l19,0c1.1,0,2.1-0.6,2.6-1.5l9.5-16C73.7,59.9,73.9,59.4,73.9,58.9"/>
	<path class="st0" d="M30.1,65.1c0-1.1,0.3-2.2,0.9-3.1l9.5-16c1.1-1.9,3.3-3.1,5.6-3.1l19,0c2.3,0,4.4,1.2,5.6,3.1l9.5,16
		c1.1,1.9,1.1,4.3,0,6.3l-9.5,16c-1.1,1.9-3.3,3.1-5.6,3.1l-19,0c-2.3,0-4.4-1.2-5.6-3.1l-9.5-16C30.3,67.3,30.1,66.2,30.1,65.1
		 M77.4,65.2c0-0.5-0.1-1-0.4-1.5l-9.5-16C67,46.8,66,46.2,65,46.2l-19,0c-1.1,0-2.1,0.6-2.6,1.5l-9.5,16c-0.5,0.9-0.5,2,0,2.9
		l9.5,16c0.5,0.9,1.5,1.5,2.6,1.5l19,0c1.1,0,2.1-0.6,2.6-1.5l9.5-16C77.3,66.2,77.4,65.7,77.4,65.2"/>
	<path class="st0" d="M30.1,52.6c0-1.1,0.3-2.2,0.9-3.1l9.5-16c1.1-1.9,3.3-3.1,5.6-3.1l19,0c2.3,0,4.4,1.2,5.6,3.1l9.5,16
		c1.1,1.9,1.1,4.3,0,6.3l-9.5,16c-1.1,1.9-3.3,3.1-5.6,3.1l-19,0c-2.3,0-4.4-1.2-5.6-3.1l-9.5-16C30.4,54.8,30.1,53.7,30.1,52.6
		 M77.4,52.7c0-0.5-0.1-1-0.4-1.5l-9.5-16C67,34.3,66,33.8,65,33.7l-19,0c-1.1,0-2.1,0.6-2.6,1.5l-9.5,16c-0.5,0.9-0.5,2,0,2.9
		l9.5,16c0.5,0.9,1.5,1.5,2.6,1.5l19,0c1.1,0,2.1-0.6,2.6-1.5l9.5-16C77.3,53.7,77.4,53.2,77.4,52.7"/>
	<path class="st0" d="M101,30l-23.8,0c-0.8-0.1-1.5,0.7-1.1,1.5l11.7,20.3c0.3,0.8,1.4,0.9,1.9,0.1l12.1-20.3
		C102.2,30.9,101.8,30.1,101,30"/>
</g>
</svg>
